<?xml version="1.0" encoding="UTF-8"?>
<svg id="Layer_1" data-name="Layer 1" xmlns="http://www.w3.org/2000/svg" viewBox="0 0 1284.88 600.06">
  <defs>
    <style>
      .cls-1 {
        fill: #39b54a;
      }
    </style>
  </defs>
  <path d="m163.65,170.76v122.44h-.52c-.85-.61-1.71-1.21-2.56-1.79-6.12-4.2-12.41-7.68-18.85-10.42-1.29-.56-2.57-1.08-3.87-1.57-.57-.22-1.15-.42-1.72-.62-.57-.2-1.16-.41-1.73-.6-.67-.24-1.35-.46-2.02-.66-.62-.19-1.25-.38-1.88-.57-8.81-2.57-17.9-3.84-27.28-3.84-18.38,0-35.56,4.42-51.55,13.25-2.65,1.45-5.26,3.03-7.83,4.74-10.95,8.41-19.83,17.6-26.68,27.56-.01.01-.03.04-.04.05-.25.38-.51.76-.76,1.15-6.86,10.3-11.57,21.4-14.09,33.32-1.51,7.03-2.27,14.33-2.27,21.93,0,18.49,4.79,36.1,14.36,52.81,1.08,1.91,2.24,3.82,3.46,5.7,9.78,12.65,20.52,22.56,32.24,29.72l.24.15c.5.29.99.59,1.49.88,10.07,5.91,20.85,9.8,32.33,11.71.01-.01.03,0,.04,0,5.5.92,11.15,1.37,16.97,1.37h2.09c20.28,0,39.5-6.06,57.66-18.19,9.92-7.26,19.04-16.64,27.32-28.13l.23-.34c9.28-15.07,14.61-30.4,15.92-45.65v-214.39h-40.69Zm0,206.09c0,10.6-3.26,21.19-9.79,31.8-13.51,18.75-30.38,28.12-50.65,28.12-11.88,0-22.58-2.85-32.13-8.55-20.26-13.52-30.4-31.1-30.4-52.75,0-11.76,3.44-23.06,10.31-33.88,13.73-18.52,30.56-27.77,50.47-27.77,12.81,0,24.57,3.61,35.28,10.83,17.92,13.62,26.9,29.98,26.9,49.07v3.14Z"/>
  <path d="m242.42,218.27c9.66,0,16.18,5.36,19.56,16.07l.52,4.54c0,9.43-5.06,16.01-15.19,19.74l-4.02.35h-1.75c-9.2,0-15.6-5.06-19.21-15.19l-.52-4.02v-1.4c0-9.31,4.89-15.72,14.67-19.21l5.94-.87Zm-20.61,54.84h40.69v204.35h-40.69v-204.35Z"/>
  <path d="m484,364.99c-2.25-28.35-16.94-53.07-43.77-73.61-.17-.13-.33-.27-.51-.39l-.25-.19c-5.83-3.92-11.86-7.2-18.09-9.84-1.29-.56-2.57-1.08-3.87-1.57-.57-.22-1.15-.42-1.72-.62-.57-.2-1.16-.41-1.73-.6-.67-.24-1.35-.46-2.02-.66-.62-.19-1.25-.38-1.88-.57-8.85-2.6-18.02-3.98-27.51-4.15-.23-.01-.45-.01-.67-.01h-.51c-12.26.05-23.83,2.07-34.71,6.07-.32.1-.64.23-.94.36-14,5.28-26.87,13.85-38.58,25.7-14.41,16.64-23.1,33.95-26.08,51.97-.79,4.7-1.17,9.43-1.17,14.23v7.68c0,17.59,5.82,35.64,17.46,54.15,22.48,29.45,50.36,44.18,83.67,44.18h1.22c22.12,0,42.37-6.68,60.78-20.09h.52v35.28c0,10.25-1.81,20.56-5.41,30.92-9.64,23.99-28.26,36.05-55.89,36.15h-.36c-12.5-.05-23.17-2.55-31.97-7.48l-11.65,39.73c13.26,5.6,27.8,8.41,43.62,8.45h.36c22.8-.06,42.93-5.88,60.42-17.46,27.71-21.54,41.57-51.82,41.57-90.82v-118.99c0-2.63-.1-5.23-.32-7.8Zm-45.79,35.27c-13.28,24.11-32.03,36.15-56.25,36.15-13.62,0-26.13-4.3-37.55-12.92-15.83-13.62-23.75-29-23.75-46.1v-4.9c0-8.03,2.39-16.99,7.17-26.9,13.51-21.42,31.55-32.13,54.14-32.13,14.56,0,27.83,4.89,39.83,14.66,14.55,13.51,21.83,29.06,21.83,46.64,0,7.1-1.81,15.61-5.41,25.5Z"/>
  <path d="m522.39,218.27c9.66,0,16.18,5.36,19.56,16.07l.52,4.54c0,9.43-5.06,16.01-15.19,19.74l-4.02.35h-1.75c-9.2,0-15.6-5.06-19.21-15.19l-.52-4.02v-1.4c0-9.31,4.89-15.72,14.67-19.21l5.94-.87Zm-20.61,54.84h40.69v204.35h-40.69v-204.35Z"/>
  <path d="m593.13,169.89h40.69v103.22h34.93v40.69h-34.93v163.65h-40.69v-163.65h-35.11v-40.69h35.11v-103.22Z"/>
  <path d="m741.68,273.11h106.43v40.69h-106.43c-9.97,0-16.16,1.81-18.58,5.41-3.46,5.47-5.2,10.83-5.2,16.07,0,9.08,3.78,15.19,11.34,18.34l6.77,1.4h49.28c29.81,0,49.28,12.63,58.41,37.9,2.41,8.03,3.62,15.95,3.62,23.75,0,25.15-10.08,43.31-30.23,54.49-8.19,4.19-15.85,6.29-22.99,6.29h-112.09v-40.69h110.05c8.5,0,14.27-4.02,17.32-12.05l1.26-8.56c0-13.74-7.51-20.61-22.51-20.61h-53.21c-13.96,0-26.87-5.94-38.73-17.81-9.97-11.64-14.96-25.96-14.96-42.96,0-15.37,4.83-29.63,14.48-42.79,9.55-12.58,24.87-18.86,45.97-18.86Z"/>
  <path class="cls-1" d="m961.59,273.11c26.78,0,50.65,10.02,71.61,30.04,19.91,21.08,29.87,45.18,29.87,72.31s-11,53.44-33.01,75.1c-20.26,17.93-43.2,26.9-68.81,26.9h-.87c-30.39,0-56.36-12.05-77.9-36.15-16.07-20.14-24.1-42.09-24.1-65.84,0-20.61,6.11-40.11,18.34-58.51,21.89-29.22,50.18-43.84,84.88-43.84Zm-62,98.85v2.62l-.52.52.52.35v2.79c0,16.53,7.86,31.85,23.58,45.93,11.99,8.38,24.51,12.57,37.55,12.57,20.14,0,36.85-8.62,50.13-25.85,7.8-11.53,11.7-23.34,11.7-35.46,0-21.19-9.84-38.77-29.52-52.75-10.71-5.94-21.77-8.91-33.18-8.91-20.38,0-37.38,9.55-51,28.64-6.17,10.48-9.26,20.32-9.26,29.52Z"/>
  <path class="cls-1" d="m1277.19,334.41c-16.98-39.19-46.68-59.58-89.13-61.19-.55-.03-1.08-.04-1.62-.06-.52-.01-1.04-.03-1.58-.04-.6-.01-1.2-.01-1.79-.01h-.55c-10.84,0-21.03,1.29-30.54,3.84-.94.25-1.88.51-2.81.79-.5.14-.98.29-1.46.45-9.34,2.95-16.7,5.89-24.67,11.43l-1.81,1.31h-.01c-9.15,6.26-17.5,14.26-24.91,24.15-9.47,14.26-14.15,30.32-15.78,46.42v115.96h40.69v-101.13c0-7.74,1.18-15.27,3.55-22.59.41-1.27.85-2.53,1.34-3.78,8.82-21.98,25.25-33.95,49.29-35.87,2.1-.17,4.25-.27,6.47-.27.22-.01.45-.01.66-.01,19.68,0,34.99,5.94,45.94,17.82,10.48,12.58,15.72,27.06,15.72,43.48v102.35h40.69v-103.75c0-12.81-2.57-25.9-7.69-39.29Z"/>
</svg>